<svg xmlns="http://www.w3.org/2000/svg" viewBox="0 0 1400 1050" preserveAspectRatio="xMidYMid slice">
  <defs>
    <pattern id="p1grid" width="64" height="64" patternUnits="userSpaceOnUse">
      <path d="M64 0H0V64" fill="none" stroke="rgba(255,255,255,0.04)" stroke-width="1"></path>
    </pattern>
  </defs>
  <rect width="1400" height="1050" fill="#0C1A2B"></rect>
  <rect width="1400" height="1050" fill="url(#p1grid)"></rect>

  
  <g transform="translate(80, 120)">
    <rect width="580" height="830" fill="#F5F3ED"></rect>
    
    <polygon points="540,0 580,0 580,40" fill="rgba(12,26,43,0.08)"></polygon>
    <polygon points="540,0 580,40 540,40" fill="rgba(12,26,43,0.04)"></polygon>

    <g font-family="JetBrains Mono, monospace" fill="#0C1A2B">
      <text x="40" y="56" font-size="12" opacity="0.55">DISCOVERY BRIEF · DRAFT v0.3</text>
      <text x="540" y="56" font-size="12" opacity="0.55" text-anchor="end">KBI · 2026-04-18</text>
    </g>

    <line x1="40" x2="540" y1="76" y2="76" stroke="#0C1A2B" stroke-opacity="0.12"></line>

    <g font-family="Archivo, sans-serif" fill="#0C1A2B">
      <text x="40" y="130" font-weight="900" font-size="38">Data Platform</text>
      <text x="40" y="170" font-weight="900" font-size="38">Modernization</text>
      <text x="40" y="210" font-size="16" opacity="0.65">Acme Health · 12-week engagement</text>
    </g>

    <g font-family="JetBrains Mono, monospace" font-size="11" fill="#0C1A2B">
      <text x="40" y="270" opacity="0.45">SUCCESS METRICS</text>
    </g>
    <g font-family="Archivo, sans-serif" fill="#0C1A2B">
      <g transform="translate(40,284)">
        <rect width="16" height="16" fill="none" stroke="#DF2127" stroke-width="1.5"></rect>
        <path d="M3 8 L7 12 L13 4" fill="none" stroke="#DF2127" stroke-width="2"></path>
        <text x="28" y="13" font-size="14">Cut report generation time &lt; 5 min</text>
      </g>
      <g transform="translate(40,314)">
        <rect width="16" height="16" fill="none" stroke="#DF2127" stroke-width="1.5"></rect>
        <path d="M3 8 L7 12 L13 4" fill="none" stroke="#DF2127" stroke-width="2"></path>
        <text x="28" y="13" font-size="14">Retire 3 legacy ETL scripts</text>
      </g>
      <g transform="translate(40,344)">
        <rect width="16" height="16" fill="none" stroke="#0C1A2B" stroke-opacity="0.3" stroke-width="1.5"></rect>
        <text x="28" y="13" font-size="14">99.9% uptime contract</text>
      </g>
      <g transform="translate(40,374)">
        <rect width="16" height="16" fill="none" stroke="#0C1A2B" stroke-opacity="0.3" stroke-width="1.5"></rect>
        <text x="28" y="13" font-size="14">HIPAA audit trail, end-to-end</text>
      </g>
    </g>

    <g font-family="JetBrains Mono, monospace" font-size="11" fill="#0C1A2B" opacity="0.45">
      <text x="40" y="440">RISKS</text>
    </g>
    <g font-family="Archivo, sans-serif" font-size="14" fill="#0C1A2B">
      <g transform="translate(40,462)">
        <circle cx="8" cy="8" r="6" fill="#DF2127"></circle>
        <text x="28" y="13">Legacy Oracle → export window TBD</text>
      </g>
      <g transform="translate(40,492)">
        <circle cx="8" cy="8" r="6" fill="#2360AD"></circle>
        <text x="28" y="13">PHI routing requires BAA countersign</text>
      </g>
      <g transform="translate(40,522)">
        <circle cx="8" cy="8" r="6" fill="#0C1A2B" fill-opacity="0.3"></circle>
        <text x="28" y="13">Analyst training — 8 hrs per team</text>
      </g>
    </g>

    <g font-family="JetBrains Mono, monospace" font-size="11" fill="#0C1A2B" opacity="0.45">
      <text x="40" y="590">SIGN-OFF</text>
    </g>
    <g font-family="Archivo, sans-serif" font-size="13" fill="#0C1A2B">
      <g transform="translate(40,614)">
        <line x1="0" x2="200" y1="28" y2="28" stroke="#0C1A2B" stroke-opacity="0.3"></line>
        <text y="48" opacity="0.65">CTO · Acme Health</text>
        
        <path d="M4 20 C 20 10, 40 28, 60 16 S 100 8, 140 22" fill="none" stroke="#0C1A2B" stroke-width="1.5"></path>
      </g>
      <g transform="translate(280,614)">
        <line x1="0" x2="200" y1="28" y2="28" stroke="#0C1A2B" stroke-opacity="0.3"></line>
        <text y="48" opacity="0.65">Engagement Lead · KBI</text>
        <path d="M4 22 C 18 6, 36 26, 58 14 S 92 4, 130 18 S 170 22, 180 16" fill="none" stroke="#DF2127" stroke-width="1.5"></path>
      </g>
    </g>

    
    <g transform="translate(420,260) rotate(-4)" font-family="Archivo, sans-serif" fill="#DF2127" opacity="0.9">
      <text font-size="13" font-style="italic">add outcomes metric — CTO asked</text>
      <path d="M -2 8 L -40 -4" stroke="#DF2127" stroke-width="1.5" fill="none"></path>
      <circle cx="-40" cy="-4" r="2" fill="#DF2127"></circle>
    </g>

    
    <line x1="40" x2="320" y1="217" y2="217" stroke="#DF2127" stroke-width="2"></line>
  </g>

  
  <g transform="translate(740, 120)">
    <g font-family="JetBrains Mono, monospace" fill="rgba(255,255,255,0.55)">
      <text font-size="11">STAKEHOLDER MAP · 7 INTERVIEWS COMPLETE</text>
    </g>

    
    <g font-family="Archivo, sans-serif" font-weight="700" font-size="13">
      <g transform="translate(200,80)">
        <circle r="52" fill="#DF2127"></circle>
        <text text-anchor="middle" y="4" fill="#fff">CTO</text>
      </g>
      <g transform="translate(60,180)">
        <circle r="36" fill="rgba(35,96,173,0.85)"></circle>
        <text text-anchor="middle" y="4" fill="#fff">Data Eng</text>
      </g>
      <g transform="translate(350,170)">
        <circle r="42" fill="rgba(35,96,173,0.85)"></circle>
        <text text-anchor="middle" y="4" fill="#fff">Analysts</text>
      </g>
      <g transform="translate(150,280)">
        <circle r="30" fill="rgba(255,255,255,0.18)" stroke="rgba(255,255,255,0.3)"></circle>
        <text text-anchor="middle" y="4" fill="#fff" font-size="11">Security</text>
      </g>
      <g transform="translate(310,310)">
        <circle r="34" fill="rgba(255,255,255,0.18)" stroke="rgba(255,255,255,0.3)"></circle>
        <text text-anchor="middle" y="4" fill="#fff" font-size="11">Clinical</text>
      </g>
      <g transform="translate(460,270)">
        <circle r="28" fill="rgba(255,255,255,0.18)" stroke="rgba(255,255,255,0.3)"></circle>
        <text text-anchor="middle" y="4" fill="#fff" font-size="10">Compliance</text>
      </g>
      <g transform="translate(80,60)">
        <circle r="24" fill="rgba(255,255,255,0.12)" stroke="rgba(255,255,255,0.3)" stroke-dasharray="2 2"></circle>
        <text text-anchor="middle" y="4" fill="rgba(255,255,255,0.5)" font-size="10">Vendor</text>
      </g>
    </g>

    
    <g fill="none" stroke="rgba(255,255,255,0.2)" stroke-width="1">
      <line x1="155" y1="92" x2="92" y2="166"></line>
      <line x1="246" y1="95" x2="316" y2="152"></line>
      <line x1="80" y1="210" x2="130" y2="258"></line>
      <line x1="315" y1="205" x2="175" y2="268"></line>
      <line x1="345" y1="198" x2="322" y2="282"></line>
      <line x1="390" y1="190" x2="448" y2="252"></line>
    </g>
  </g>

  
  <g transform="translate(740, 620)">
    <g font-family="JetBrains Mono, monospace" fill="rgba(255,255,255,0.55)">
      <text font-size="11">TIMELINE · PHASE 01 OF 04</text>
    </g>
    <g transform="translate(0,26)">
      <line x1="0" x2="560" y1="20" y2="20" stroke="rgba(255,255,255,0.14)" stroke-width="2"></line>
      <line x1="0" x2="140" y1="20" y2="20" stroke="#DF2127" stroke-width="3"></line>
      <circle cx="0" cy="20" r="6" fill="#DF2127"></circle>
      <circle cx="140" cy="20" r="6" fill="#DF2127"></circle>
      <circle cx="280" cy="20" r="6" fill="rgba(255,255,255,0.3)"></circle>
      <circle cx="420" cy="20" r="6" fill="rgba(255,255,255,0.3)"></circle>
      <circle cx="560" cy="20" r="6" fill="rgba(255,255,255,0.3)"></circle>

      <g font-family="JetBrains Mono, monospace" font-size="10" fill="rgba(255,255,255,0.6)">
        <text x="0" y="52">WK 0</text>
        <text x="140" y="52">WK 2</text>
        <text x="280" y="52">WK 6</text>
        <text x="420" y="52">WK 10</text>
        <text x="560" y="52" text-anchor="end">WK 12</text>
      </g>
      <g font-family="Archivo, sans-serif" font-size="11" fill="rgba(255,255,255,0.8)">
        <text x="0" y="78" font-weight="700">Discover</text>
        <text x="140" y="78">Architect</text>
        <text x="280" y="78">Build</text>
        <text x="420" y="78">Integrate</text>
        <text x="560" y="78" text-anchor="end">Operate</text>
      </g>
    </g>

    <g transform="translate(0,150)" font-family="Archivo, sans-serif">
      <text font-weight="900" font-size="72" fill="#fff">2 wks</text>
      <text y="26" font-family="JetBrains Mono, monospace" font-size="11" fill="rgba(255,255,255,0.5)">to signed brief</text>

      <g transform="translate(260,-52)">
        <text font-weight="900" font-size="72" fill="#DF2127">7</text>
        <text y="26" font-family="JetBrains Mono, monospace" font-size="11" fill="rgba(255,255,255,0.5)">interviews</text>
      </g>
      <g transform="translate(400,-52)">
        <text font-weight="900" font-size="72" fill="#fff">14</text>
        <text y="26" font-family="JetBrains Mono, monospace" font-size="11" fill="rgba(255,255,255,0.5)">data sources</text>
      </g>
    </g>
  </g>

  
  <g transform="translate(80,1000)" font-family="JetBrains Mono, monospace" font-size="11" fill="rgba(255,255,255,0.4)">
    <text>phase 01 · discovery</text>
    <text x="1240" text-anchor="end">kbi · how we work</text>
  </g>
</svg>